<?xml version="1.0" encoding="utf-8"?>
<!-- Generator: Adobe Illustrator 23.0.4, SVG Export Plug-In . SVG Version: 6.00 Build 0)  -->
<svg version="1.1" id="Layer_1" xmlns="http://www.w3.org/2000/svg" xmlns:xlink="http://www.w3.org/1999/xlink" x="0px" y="0px"
	 viewBox="0 0 500 130.7" style="enable-background:new 0 0 500 130.7;" xml:space="preserve">
<style type="text/css">
	.st0{fill:#77287A;}
	.st1{fill:url(#SVGID_1_);}
	.st2{fill:#3876BB;}
	.st3{fill:url(#SVGID_2_);}
	.st4{fill:#81BD61;}
	.st5{fill:url(#SVGID_3_);}
	.st6{fill:#D36A32;}
	.st7{fill:url(#SVGID_4_);}
	.st8{fill:#B83B86;}
	.st9{fill:url(#SVGID_5_);}
	.st10{fill:url(#SVGID_6_);}
	.st11{fill:url(#SVGID_7_);}
	.st12{fill:url(#SVGID_8_);}
	.st13{fill:url(#SVGID_9_);}
	.st14{fill:url(#SVGID_10_);}
</style>
<g>
	<path class="st0" d="M192.3,55.5l-1.1-12.6c-0.2-1.9-0.4-4.3-0.4-6.4h-0.1c-0.9,2-2.2,4.7-3.2,6.5L181,55.7h-1.6L172.9,43
		c-1-1.8-2.1-4.3-3.1-6.4h-0.1c-0.1,2.1-0.3,4.6-0.4,6.3l-1.1,12.6h-3.8l2.4-27.9h2.6l7.4,14.4c1.1,2.2,2.6,5,3.5,7.2h0.1
		c0.9-2.1,2.2-4.9,3.4-7.2l7.4-14.4h2.6l2.5,27.9H192.3z"/>
	<path class="st0" d="M213.9,56c-6.5,0-11.4-3.9-11.4-10.4V27.6h4.2v17.7c0,4.2,2.3,7.1,7.2,7.1c4.9,0,7.2-2.9,7.2-7.1V27.6h4.1
		v18.1C225.3,52.2,220.4,56,213.9,56z"/>
	<path class="st0" d="M232.3,55.5V27.6h4.2v24.3h12.3v3.6H232.3z"/>
	<path class="st0" d="M260.5,31.2v24.3h-4.2V31.2h-9v-3.6h22.2v3.6H260.5z"/>
	<path class="st0" d="M274.5,55.5V27.6h4.2v27.9H274.5z"/>
	<path class="st0" d="M307.9,32.5c-1.4-0.9-4.1-1.8-7-1.8c-5.5,0-11.3,3.5-11.3,10.9c0,7.2,5.6,10.8,11.3,10.8c3.3,0,6-0.7,7.7-1.8
		l-0.9,4.1c-1.8,0.9-3.7,1.4-7.3,1.4c-7.1,0-15.1-4.9-15.1-14.5c0-9.7,8.1-14.5,15.1-14.5c3.9,0,6.5,0.9,8.2,1.8L307.9,32.5z"/>
	<path class="st0" d="M325.4,56c-6.5,0-11.4-3.9-11.4-10.4V27.6h4.2v17.7c0,4.2,2.3,7.1,7.2,7.1c4.9,0,7.2-2.9,7.2-7.1V27.6h4.1
		v18.1C336.8,52.2,331.9,56,325.4,56z"/>
	<path class="st0" d="M343.8,55.5V27.6h4.2v24.3h12.3v3.6H343.8z"/>
	<path class="st0" d="M372.1,31.2v24.3h-4.2V31.2h-9v-3.6H381v3.6H372.1z"/>
	<path class="st0" d="M396.8,56c-6.5,0-11.4-3.9-11.4-10.4V27.6h4.2v17.7c0,4.2,2.3,7.1,7.2,7.1c4.9,0,7.2-2.9,7.2-7.1V27.6h4.1
		v18.1C408.2,52.2,403.3,56,396.8,56z"/>
	<path class="st0" d="M432.2,55.5l-8.8-12.3h-3.9v12.3h-4.2V27.6h8.8c3.9,0,8.4,2.5,8.4,7.8c0,3.7-2.2,6.1-4.9,7.2l9.5,12.9H432.2z
		 M423.3,31.2h-3.9v8.5h3.9c2.5,0,4.8-1.3,4.8-4.2C428.1,32.5,425.8,31.2,423.3,31.2z"/>
	<path class="st0" d="M459.9,55.5l-3-7.2H446l-3,7.2h-4.2l11.9-28.3h1.5l11.9,28.3H459.9z M452.7,38.1c-0.4-0.9-0.8-2.2-1.2-3.4
		h-0.1c-0.3,1.2-0.8,2.5-1.2,3.4l-2.8,6.8h8L452.7,38.1z"/>
	<path class="st0" d="M469.3,55.5V27.6h4.2v24.3h12.3v3.6H469.3z"/>
</g>
<g>
	<path class="st0" d="M186.1,79.2c-1.4-0.9-4.1-1.8-7-1.8c-5.5,0-11.3,3.5-11.3,10.9c0,7.2,5.6,10.8,11.3,10.8c3.3,0,6-0.7,7.7-1.8
		l-0.9,4.1c-1.8,0.9-3.7,1.4-7.3,1.4c-7.1,0-15.1-4.9-15.1-14.5c0-9.7,8.1-14.5,15.1-14.5c3.9,0,6.5,0.9,8.2,1.8L186.1,79.2z"/>
	<path class="st0" d="M191.3,102.2V74.3h15.1v3.6h-10.8v8.5h9.1V90h-9.1v8.6h12.4v3.6H191.3z"/>
	<path class="st0" d="M235.9,102.8l-13.1-14.3c-2.1-2.3-4.5-5.1-6.4-7.4l-0.1,0c0.1,2.5,0.1,4.9,0.1,7v14h-4.2V74.3h2.9l12,13.1
		c1.6,1.8,4.2,4.6,5.9,6.7l0.1,0c-0.1-2.1-0.1-4.6-0.1-6.6V74.3h4.2v28.6H235.9z"/>
	<path class="st0" d="M253.9,77.9v24.3h-4.2V77.9h-9v-3.6h22.2v3.6H253.9z"/>
	<path class="st0" d="M266.4,102.2V74.3h15.1v3.6h-10.8v8.5h9.1V90h-9.1v8.6H283v3.6H266.4z"/>
	<path class="st0" d="M304.2,102.2l-8.8-12.3h-3.9v12.3h-4.2V74.3h8.8c3.9,0,8.4,2.5,8.4,7.8c0,3.7-2.2,6.1-4.9,7.2l9.5,12.9H304.2z
		 M295.3,77.9h-3.9v8.5h3.9c2.5,0,4.8-1.3,4.8-4.2C300.1,79.2,297.8,77.9,295.3,77.9z"/>
</g>
<g>
	<path class="st0" d="M388.3,103.1l-1.1-12.6c-0.2-1.9-0.4-4.3-0.4-6.4h-0.1c-0.9,2-2.2,4.7-3.2,6.5l-6.5,12.7h-1.6l-6.6-12.7
		c-1-1.8-2.1-4.3-3.1-6.4h-0.1c-0.1,2.1-0.3,4.6-0.4,6.3l-1.1,12.6h-3.8l2.4-27.9h2.6l7.4,14.4c1.1,2.2,2.6,5,3.5,7.2h0.1
		c0.9-2.1,2.2-4.9,3.4-7.2l7.4-14.4h2.6l2.5,27.9H388.3z"/>
	<path class="st0" d="M416.7,103.1l-3-7.2h-10.9l-3,7.2h-4.2l11.9-28.3h1.5l11.9,28.3H416.7z M409.5,85.7c-0.4-0.9-0.8-2.2-1.2-3.4
		h-0.1c-0.3,1.2-0.8,2.5-1.2,3.4l-2.8,6.8h8L409.5,85.7z"/>
	<path class="st0" d="M442.1,103.1l-8.8-12.3h-3.9v12.3h-4.2V75.1h8.8c3.9,0,8.4,2.5,8.4,7.8c0,3.7-2.2,6.1-4.9,7.2l9.5,12.9H442.1z
		 M433.3,78.7h-3.9v8.5h3.9c2.5,0,4.8-1.3,4.8-4.2C438.1,80.1,435.8,78.7,433.3,78.7z"/>
	<path class="st0" d="M450.6,103.1V75.1h4.2v27.9H450.6z"/>
	<path class="st0" d="M485.4,103.7l-13.1-14.3c-2.1-2.3-4.5-5.1-6.4-7.4l-0.1,0c0.1,2.5,0.1,4.9,0.1,7v14h-4.2V75.1h2.9l12,13.1
		c1.6,1.8,4.2,4.6,5.9,6.7l0.1,0c-0.1-2.1-0.1-4.6-0.1-6.6V75.1h4.2v28.6H485.4z"/>
</g>
<g>
	<path class="st0" d="M328.4,91.9c-3.8,0-7.4-2.8-7.4-7.2c0-4.4,3.6-7.2,7.4-7.2s7.4,2.8,7.4,7.2C335.7,89.1,332.2,91.9,328.4,91.9z
		 M328.4,79c-2.8,0-5.5,2.1-5.5,5.7c0,3.5,2.7,5.7,5.5,5.7c2.8,0,5.5-2.2,5.5-5.7C333.9,81.2,331.2,79,328.4,79z"/>
	<path class="st0" d="M342.4,87v4.6h4.9v1.6h-4.9v6.2h-1.8v-14h7.6V87H342.4z"/>
</g>
<g>
	<linearGradient id="SVGID_1_" gradientUnits="userSpaceOnUse" x1="57.4269" y1="67.5627" x2="57.4269" y2="29.097">
		<stop  offset="0" style="stop-color:#3876BB;stop-opacity:0.6"/>
		<stop  offset="1" style="stop-color:#3876BB"/>
	</linearGradient>
	<path class="st1" d="M55,29.5l-0.2-0.4c1.6,3.3,2,7.1,2.2,11c-6.5-2-13.4-4-18.2-8.3l-0.4-0.4c8.8,8,11.7,25.3,19.6,32.4
		c5.3,4.9,12.7,5,16.4,0.3c1.2-1.5,1.9-3.3,2-5.3c0.4-2.2,0.2-4.7-1-7.1C71.6,44.1,59.1,38.2,55,29.5z"/>
	<circle class="st2" cx="40.4" cy="21.9" r="6.2"/>
	<linearGradient id="SVGID_2_" gradientUnits="userSpaceOnUse" x1="48.3263" y1="72.5157" x2="48.3263" y2="46.1584">
		<stop  offset="0" style="stop-color:#80BD60;stop-opacity:0.6"/>
		<stop  offset="1" style="stop-color:#80BD60"/>
	</linearGradient>
	<path class="st3" d="M36.5,46.4l-0.4-0.2c3.2,1.7,5.8,4.5,8.3,7.6c-6.5,2.2-13.2,4.7-19.6,4l-0.6-0.1C36,59,48.6,71.3,59.1,72.4
		c7.2,0.8,13.2-3.4,13.4-9.4c0.1-1.9-0.5-3.8-1.5-5.5c-0.9-2-2.6-3.9-5-5.1C58.6,48.4,45,50.9,36.5,46.4z"/>
	<circle class="st4" cx="20.3" cy="48.8" r="6.2"/>
	<linearGradient id="SVGID_3_" gradientUnits="userSpaceOnUse" x1="50.0176" y1="87.2542" x2="50.0176" y2="58.2736">
		<stop  offset="0" style="stop-color:#D36A31;stop-opacity:0.6"/>
		<stop  offset="1" style="stop-color:#D36A31"/>
	</linearGradient>
	<path class="st5" d="M31.5,70.9L31,70.9c3.6-0.5,7.4,0.2,11.2,1.3c-3.9,5.6-7.9,11.5-13.5,14.7l-0.5,0.3
		c10.3-5.9,27.7-3.3,36.9-8.6c6.3-3.6,8.7-10.5,5.3-15.5c-1.1-1.6-2.6-2.8-4.4-3.6c-1.9-1.1-4.4-1.6-7-1.2
		C50.5,59.5,41,69.6,31.5,70.9z"/>
	<circle class="st6" cx="19.8" cy="82.3" r="6.2"/>
	<linearGradient id="SVGID_4_" gradientUnits="userSpaceOnUse" x1="58.2135" y1="108.8521" x2="58.2135" y2="63.9916">
		<stop  offset="0" style="stop-color:#B83A87;stop-opacity:0.6"/>
		<stop  offset="1" style="stop-color:#B83A87"/>
	</linearGradient>
	<path class="st7" d="M41.9,93.6l-0.4,0.3c2.6-2.5,6.1-4.1,9.8-5.5c0.1,6.8,0.4,14-2.3,19.9l-0.2,0.5c4.9-10.8,20.5-19,24.8-28.6
		c3-6.6,0.8-13.6-4.8-15.7c-1.8-0.7-3.8-0.7-5.7-0.3c-2.2,0.2-4.5,1.3-6.4,3.1C50.6,73.3,48.8,87,41.9,93.6z"/>
	<circle class="st8" cx="39.1" cy="109.8" r="6.2"/>
	<linearGradient id="SVGID_5_" gradientUnits="userSpaceOnUse" x1="70.8666" y1="114.2093" x2="70.8666" y2="66.2738">
		<stop  offset="0" style="stop-color:#772778;stop-opacity:0.6"/>
		<stop  offset="1" style="stop-color:#772778"/>
	</linearGradient>
	<path class="st9" d="M63.6,105.9l-0.1,0.5c0.6-3.6,2.5-6.9,4.7-10.2c4.1,5.5,8.5,11.1,9.8,17.4l0.1,0.6
		c-2.4-11.6,5.4-27.4,3.3-37.7c-1.5-7.1-7.3-11.5-13.1-9.9c-1.9,0.5-3.5,1.6-4.8,3.1c-1.6,1.5-2.9,3.7-3.3,6.3
		C58.7,84.4,65.3,96.5,63.6,105.9z"/>
	<circle class="st0" cx="70.9" cy="120.7" r="6.2"/>
	<linearGradient id="SVGID_6_" gradientUnits="userSpaceOnUse" x1="85.9596" y1="103.5696" x2="85.9596" y2="65.104">
		<stop  offset="0" style="stop-color:#279CCF;stop-opacity:0.6"/>
		<stop  offset="1" style="stop-color:#279CCF"/>
	</linearGradient>
	<path class="st10" d="M88.4,103.1l0.2,0.4c-1.6-3.3-2-7.1-2.2-11c6.5,2,13.4,4,18.2,8.3l0.4,0.4c-8.8-8-11.7-25.3-19.6-32.4
		c-5.3-4.9-12.7-5-16.4-0.3c-1.2,1.5-1.9,3.3-2,5.3c-0.4,2.2-0.2,4.7,1,7.1C71.8,88.6,84.3,94.5,88.4,103.1z"/>
	<circle class="st2" cx="103" cy="110.8" r="6.2"/>
	<linearGradient id="SVGID_7_" gradientUnits="userSpaceOnUse" x1="95.0602" y1="86.5083" x2="95.0602" y2="60.151">
		<stop  offset="0" style="stop-color:#3F9F47;stop-opacity:0.6"/>
		<stop  offset="1" style="stop-color:#3F9F47"/>
	</linearGradient>
	<path class="st11" d="M106.8,86.3l0.4,0.2c-3.2-1.7-5.8-4.5-8.3-7.6c6.5-2.2,13.2-4.7,19.6-4l0.6,0.1
		c-11.8-1.3-24.4-13.6-34.9-14.8c-7.2-0.8-13.2,3.4-13.4,9.4c-0.1,1.9,0.5,3.8,1.5,5.5c0.9,2,2.6,3.9,5,5.1
		C84.8,84.3,98.4,81.7,106.8,86.3z"/>
	<circle class="st4" cx="123.1" cy="83.9" r="6.2"/>
	<linearGradient id="SVGID_8_" gradientUnits="userSpaceOnUse" x1="93.3688" y1="74.393" x2="93.3688" y2="45.4125">
		<stop  offset="0" style="stop-color:#D36A31;stop-opacity:0.6"/>
		<stop  offset="1" style="stop-color:#D36A31"/>
	</linearGradient>
	<path class="st12" d="M111.9,61.8l0.5-0.1c-3.6,0.5-7.4-0.2-11.2-1.3c3.9-5.6,7.9-11.5,13.5-14.7l0.5-0.3
		c-10.3,5.9-27.7,3.3-36.9,8.6c-6.3,3.6-8.7,10.5-5.3,15.5c1.1,1.6,2.6,2.8,4.4,3.6c1.9,1.1,4.4,1.6,7,1.2
		C92.9,73.1,102.3,63.1,111.9,61.8z"/>
	<circle class="st6" cx="123.6" cy="50.3" r="6.2"/>
	<linearGradient id="SVGID_9_" gradientUnits="userSpaceOnUse" x1="85.173" y1="68.6751" x2="85.173" y2="23.8146">
		<stop  offset="0" style="stop-color:#B83A87;stop-opacity:0.6"/>
		<stop  offset="1" style="stop-color:#B83A87"/>
	</linearGradient>
	<path class="st13" d="M101.5,39.1l0.4-0.3c-2.6,2.5-6.1,4.1-9.8,5.5c-0.1-6.8-0.4-14,2.3-19.9l0.2-0.5c-4.9,10.8-20.5,19-24.8,28.6
		C66.8,59,69,66,74.6,68.1c1.8,0.7,3.8,0.7,5.7,0.3c2.2-0.2,4.5-1.3,6.4-3.1C92.8,59.4,94.6,45.7,101.5,39.1z"/>
	<circle class="st8" cx="104.3" cy="22.9" r="6.2"/>
	<circle class="st0" cx="72.5" cy="12" r="6.2"/>
	<linearGradient id="SVGID_10_" gradientUnits="userSpaceOnUse" x1="72.5199" y1="66.3928" x2="72.5199" y2="18.4574">
		<stop  offset="0" style="stop-color:#772778;stop-opacity:0.6"/>
		<stop  offset="1" style="stop-color:#772778"/>
	</linearGradient>
	<path class="st14" d="M79.8,26.7l0.1-0.5c-0.6,3.6-2.5,6.9-4.7,10.2C71.1,31,66.7,25.4,65.4,19l-0.1-0.6
		c2.4,11.6-5.4,27.4-3.3,37.7c1.5,7.1,7.3,11.5,13.1,9.9c1.9-0.5,3.5-1.6,4.8-3.1c1.6-1.5,2.9-3.7,3.3-6.3
		C84.7,48.3,78.1,36.2,79.8,26.7z"/>
</g>
</svg>
